<svg xmlns="http://www.w3.org/2000/svg" viewBox="0 0 512 512" width="512" height="512">
  <defs>
    <radialGradient id="bg" cx="40%" cy="35%" r="70%">
      <stop offset="0%" stop-color="#3a5e45"/>
      <stop offset="100%" stop-color="#1a2620"/>
    </radialGradient>
    <radialGradient id="glow" cx="50%" cy="50%" r="50%">
      <stop offset="0%" stop-color="#7a9e7e" stop-opacity="0.3"/>
      <stop offset="100%" stop-color="#7a9e7e" stop-opacity="0"/>
    </radialGradient>
  </defs>
  <rect width="512" height="512" rx="96" fill="url(#bg)"/>
  <ellipse cx="256" cy="256" rx="220" ry="220" fill="url(#glow)"/>
  <circle cx="256" cy="256" r="190" fill="none" stroke="#7a9e7e" stroke-width="1.5" stroke-opacity="0.4"/>
  <circle cx="256" cy="256" r="150" fill="none" stroke="#7a9e7e" stroke-width="1.5" stroke-opacity="0.25"/>
  <circle cx="256" cy="256" r="108" fill="none" stroke="#a8c5d4" stroke-width="1" stroke-opacity="0.2"/>
  <polygon points="218,196 218,316 310,256" fill="#c8ddd1" fill-opacity="0.9"/>
  <!-- Waveform -->
  <rect x="148" y="366" width="12" height="28" rx="6" fill="#7a9e7e" fill-opacity="0.5"/>
  <rect x="166" y="350" width="12" height="44" rx="6" fill="#7a9e7e" fill-opacity="0.7"/>
  <rect x="184" y="358" width="12" height="36" rx="6" fill="#7a9e7e" fill-opacity="0.6"/>
  <rect x="202" y="344" width="12" height="50" rx="6" fill="#7a9e7e" fill-opacity="0.8"/>
  <rect x="220" y="352" width="12" height="42" rx="6" fill="#7a9e7e" fill-opacity="0.9"/>
  <rect x="238" y="346" width="12" height="48" rx="6" fill="#7a9e7e" fill-opacity="1"/>
  <rect x="256" y="352" width="12" height="42" rx="6" fill="#7a9e7e" fill-opacity="0.9"/>
  <rect x="274" y="344" width="12" height="50" rx="6" fill="#7a9e7e" fill-opacity="0.8"/>
  <rect x="292" y="358" width="12" height="36" rx="6" fill="#7a9e7e" fill-opacity="0.6"/>
  <rect x="310" y="350" width="12" height="44" rx="6" fill="#7a9e7e" fill-opacity="0.7"/>
  <rect x="328" y="366" width="12" height="28" rx="6" fill="#7a9e7e" fill-opacity="0.5"/>
  <text x="390" y="130" font-size="56" opacity="0.3">🍃</text>
</svg>
