<svg xmlns="http://www.w3.org/2000/svg" viewBox="0 0 192 192" width="192" height="192">
  <defs>
    <radialGradient id="bg" cx="40%" cy="35%" r="70%">
      <stop offset="0%" stop-color="#3a5e45"/>
      <stop offset="100%" stop-color="#1a2620"/>
    </radialGradient>
    <radialGradient id="glow" cx="50%" cy="50%" r="50%">
      <stop offset="0%" stop-color="#7a9e7e" stop-opacity="0.3"/>
      <stop offset="100%" stop-color="#7a9e7e" stop-opacity="0"/>
    </radialGradient>
  </defs>
  <!-- Background -->
  <rect width="192" height="192" rx="32" fill="url(#bg)"/>
  <!-- Glow -->
  <ellipse cx="96" cy="96" rx="80" ry="80" fill="url(#glow)"/>
  <!-- Outer ring -->
  <circle cx="96" cy="96" r="72" fill="none" stroke="#7a9e7e" stroke-width="1" stroke-opacity="0.4"/>
  <!-- Middle ring -->
  <circle cx="96" cy="96" r="56" fill="none" stroke="#7a9e7e" stroke-width="1" stroke-opacity="0.25"/>
  <!-- Inner ring -->
  <circle cx="96" cy="96" r="40" fill="none" stroke="#a8c5d4" stroke-width="0.8" stroke-opacity="0.2"/>
  <!-- Play triangle -->
  <polygon points="82,76 82,116 118,96" fill="#c8ddd1" fill-opacity="0.9"/>
  <!-- Waveform bars at bottom -->
  <rect x="58" y="136" width="4" height="10" rx="2" fill="#7a9e7e" fill-opacity="0.5"/>
  <rect x="66" y="130" width="4" height="16" rx="2" fill="#7a9e7e" fill-opacity="0.7"/>
  <rect x="74" y="133" width="4" height="13" rx="2" fill="#7a9e7e" fill-opacity="0.6"/>
  <rect x="82" y="128" width="4" height="18" rx="2" fill="#7a9e7e" fill-opacity="0.8"/>
  <rect x="90" y="131" width="4" height="15" rx="2" fill="#7a9e7e" fill-opacity="0.9"/>
  <rect x="98" y="129" width="4" height="17" rx="2" fill="#7a9e7e" fill-opacity="0.8"/>
  <rect x="106" y="133" width="4" height="13" rx="2" fill="#7a9e7e" fill-opacity="0.6"/>
  <rect x="114" y="130" width="4" height="16" rx="2" fill="#7a9e7e" fill-opacity="0.7"/>
  <rect x="122" y="136" width="4" height="10" rx="2" fill="#7a9e7e" fill-opacity="0.5"/>
  <!-- Leaf accent -->
  <text x="148" y="52" font-size="20" opacity="0.35">🍃</text>
</svg>
